<svg width="48" height="52" viewBox="0 0 48 52" fill="none" xmlns="http://www.w3.org/2000/svg">
<path d="M44.625 5.98038H24.9375V1.07841C24.9375 0.818398 24.8387 0.569032 24.6629 0.385173C24.4871 0.201314 24.2486 0.0980225 24 0.0980225C23.7514 0.0980225 23.5129 0.201314 23.3371 0.385173C23.1613 0.569032 23.0625 0.818398 23.0625 1.07841V5.98038H3.375C2.62933 5.98122 1.91442 6.29136 1.38715 6.84276C0.859881 7.39415 0.563307 8.14176 0.5625 8.92155V38.3333C0.563307 39.1131 0.859881 39.8607 1.38715 40.4121C1.91442 40.9635 2.62933 41.2737 3.375 41.2745H14.5495L8.26805 49.4855C8.18955 49.5859 8.13087 49.7015 8.09539 49.8257C8.05991 49.9499 8.04833 50.0803 8.06134 50.2092C8.07435 50.3381 8.11168 50.4631 8.17118 50.5768C8.23067 50.6905 8.31114 50.7908 8.40793 50.8718C8.50472 50.9528 8.61592 51.0129 8.73507 51.0487C8.85423 51.0844 8.97899 51.0951 9.10212 51.0801C9.22526 51.0651 9.34433 51.0247 9.45244 50.9613C9.56055 50.8978 9.65555 50.8126 9.73195 50.7105L16.9507 41.2745H31.0495L38.268 50.7105C38.4244 50.9104 38.6498 51.0376 38.8953 51.0647C39.1408 51.0918 39.3866 51.0165 39.5794 50.8552C39.7722 50.6939 39.8963 50.4596 39.9249 50.2032C39.9534 49.9467 39.8841 49.6888 39.732 49.4855L33.4507 41.2745H44.625C45.3707 41.2737 46.0856 40.9635 46.6128 40.4121C47.1401 39.8607 47.4367 39.1131 47.4375 38.3333V8.92155C47.4367 8.14176 47.1401 7.39415 46.6128 6.84276C46.0856 6.29136 45.3707 5.98122 44.625 5.98038ZM45.5625 38.3333C45.5623 38.5933 45.4634 38.8425 45.2876 39.0263C45.1119 39.2101 44.8736 39.3135 44.625 39.3137H3.375C3.12644 39.3135 2.88812 39.2101 2.71236 39.0263C2.5366 38.8425 2.43775 38.5933 2.4375 38.3333V8.92155C2.43775 8.66162 2.5366 8.4124 2.71236 8.2286C2.88812 8.04479 3.12644 7.94142 3.375 7.94116H44.625C44.8736 7.94142 45.1119 8.04479 45.2876 8.2286C45.4634 8.4124 45.5623 8.66162 45.5625 8.92155V38.3333ZM17.4375 24.6078V30.4902C17.4375 30.7502 17.3387 30.9996 17.1629 31.1834C16.9871 31.3673 16.7486 31.4706 16.5 31.4706C16.2514 31.4706 16.0129 31.3673 15.8371 31.1834C15.6613 30.9996 15.5625 30.7502 15.5625 30.4902V24.6078C15.5625 24.3478 15.6613 24.0984 15.8371 23.9146C16.0129 23.7307 16.2514 23.6274 16.5 23.6274C16.7486 23.6274 16.9871 23.7307 17.1629 23.9146C17.3387 24.0984 17.4375 24.3478 17.4375 24.6078ZM24.9375 20.6863V30.4902C24.9375 30.7502 24.8387 30.9996 24.6629 31.1834C24.4871 31.3673 24.2486 31.4706 24 31.4706C23.7514 31.4706 23.5129 31.3673 23.3371 31.1834C23.1613 30.9996 23.0625 30.7502 23.0625 30.4902V20.6863C23.0625 20.4262 23.1613 20.1769 23.3371 19.993C23.5129 19.8092 23.7514 19.7059 24 19.7059C24.2486 19.7059 24.4871 19.8092 24.6629 19.993C24.8387 20.1769 24.9375 20.4262 24.9375 20.6863ZM32.4375 16.7647V30.4902C32.4375 30.7502 32.3387 30.9996 32.1629 31.1834C31.9871 31.3673 31.7486 31.4706 31.5 31.4706C31.2514 31.4706 31.0129 31.3673 30.8371 31.1834C30.6613 30.9996 30.5625 30.7502 30.5625 30.4902V16.7647C30.5625 16.5047 30.6613 16.2553 30.8371 16.0714C31.0129 15.8876 31.2514 15.7843 31.5 15.7843C31.7486 15.7843 31.9871 15.8876 32.1629 16.0714C32.3387 16.2553 32.4375 16.5047 32.4375 16.7647Z" fill="#ED7D31"/>
</svg>
