<svg width="17" height="17" viewBox="0 0 17 17" fill="none" xmlns="http://www.w3.org/2000/svg">
<path d="M8.3438 0.5C9.43782 0.5 10.4743 0.708446 11.4531 1.12534C12.432 1.54223 13.2813 2.11006 14.001 2.82884C14.7208 3.54762 15.2894 4.39578 15.7068 5.37331C16.1243 6.35085 16.333 7.39308 16.333 8.5C16.333 9.60692 16.1243 10.642 15.7068 11.6051C15.2894 12.5683 14.7208 13.4164 14.001 14.1496C13.2813 14.8827 12.432 15.4578 11.4531 15.8747C10.4743 16.2916 9.43422 16.5 8.33301 16.5C7.23179 16.5 6.19895 16.2916 5.23449 15.8747C4.27003 15.4578 3.42073 14.8827 2.68658 14.1496C1.95244 13.4164 1.37664 12.5683 0.959189 11.6051C0.541735 10.642 0.333008 9.60692 0.333008 8.5C0.333008 7.39308 0.541735 6.35085 0.959189 5.37331C1.37664 4.39578 1.95244 3.54762 2.68658 2.82884C3.42073 2.11006 4.27003 1.54223 5.23449 1.12534C6.19895 0.708446 7.23539 0.5 8.3438 0.5ZM8.3438 3.02291C8.3438 2.86478 8.29342 2.7354 8.19266 2.63477C8.09189 2.53414 7.95514 2.4982 7.7824 2.52695C7.01947 2.59883 6.30692 2.80009 5.64475 3.13073C4.98258 3.46137 4.40678 3.89982 3.91735 4.44609C3.42792 4.99236 3.04646 5.60332 2.77295 6.27898C2.49945 6.95463 2.3555 7.69497 2.3411 8.5C2.32671 9.30503 2.47066 10.0382 2.77295 10.6995C3.07525 11.3607 3.45671 11.9789 3.91735 12.5539C4.37799 13.1289 4.95379 13.5602 5.64475 13.8477C6.33571 14.1352 7.04826 14.3437 7.7824 14.473C7.94074 14.4874 8.0775 14.4443 8.19266 14.3437C8.30782 14.243 8.3582 14.1208 8.3438 13.9771V3.02291Z" fill="white"/>
</svg>
