<svg width="38" height="54" viewBox="0 0 38 54" fill="none" xmlns="http://www.w3.org/2000/svg">
<path d="M35.5111 53.6667H2.49023C1.19784 53.6667 0.146484 52.6154 0.146484 51.323V23.6929C0.146484 23.2614 0.496276 22.9116 0.927734 22.9116C1.35919 22.9116 1.70898 23.2614 1.70898 23.6929V51.323C1.70898 51.7538 2.0594 52.1042 2.49023 52.1042H35.5111C35.9419 52.1042 36.2923 51.7538 36.2923 51.323V40.724C36.2923 40.2925 36.6421 39.9428 37.0736 39.9428C37.505 39.9428 37.8548 40.2925 37.8548 40.724V51.323C37.8548 52.6154 36.8035 53.6667 35.5111 53.6667ZM21.8416 39.269C21.3895 39.269 20.9464 39.0921 20.6126 38.7583L16.2296 34.3753H11.1041C9.9244 34.3753 8.89169 33.6228 8.53409 32.5029C8.31055 31.8028 8.13107 31.0399 8.00086 30.2357C7.9319 29.8097 8.22138 29.4086 8.64732 29.3396C9.07263 29.271 9.4744 29.56 9.54336 29.9861C9.66117 30.7141 9.82242 31.401 10.0225 32.0276C10.1724 32.4973 10.6071 32.8129 11.1041 32.8129H15.772V21.1873H11.1041C10.6071 21.1873 10.1725 21.5029 10.0225 21.9725C9.69888 22.9859 9.31315 24.6807 9.31315 27C9.31315 27.4315 8.96336 27.7813 8.5319 27.7813C8.10044 27.7813 7.75065 27.4315 7.75065 27C7.75065 24.4795 8.17669 22.6164 8.53409 21.4971C8.89169 20.3772 9.9244 19.6247 11.1041 19.6247H16.2296L20.6126 15.2417C21.1121 14.7421 21.8568 14.594 22.5095 14.8643C23.1622 15.1347 23.584 15.7659 23.584 16.4724V37.5275C23.584 38.234 23.1622 38.8653 22.5095 39.1357C22.2928 39.2254 22.0662 39.269 21.8416 39.269ZM17.3344 33.2705L21.7174 37.6535C21.7733 37.7093 21.8385 37.7222 21.9115 37.6921C21.9844 37.6619 22.0214 37.6066 22.0214 37.5276V16.4725C22.0214 16.3936 21.9844 16.3383 21.9115 16.3081C21.8386 16.2779 21.7733 16.2908 21.7174 16.3467L17.3344 20.7297V33.2705ZM26.9173 3.91608V10.4896C26.9173 10.9205 27.2677 11.2709 27.6986 11.2709H34.2721C33.2564 10.2551 31.9255 8.92431 30.5947 7.59348C29.2639 6.26254 27.933 4.93181 26.9173 3.91608ZM29.2611 34.7466C28.8296 34.7466 28.4798 34.3968 28.4798 33.9654V20.0347C28.4798 19.6033 28.8296 19.2535 29.2611 19.2535C29.6925 19.2535 30.0423 19.6033 30.0423 20.0347V33.9653C30.0423 34.3968 29.6925 34.7466 29.2611 34.7466V34.7466ZM25.3548 2.67712C25.3548 2.24567 25.005 1.89587 24.5736 1.89587H2.49023C2.0594 1.89587 1.70898 2.24629 1.70898 2.67712V20.5679C1.70898 20.9993 1.35919 21.3491 0.927734 21.3491C0.496276 21.3491 0.146484 20.9993 0.146484 20.5679V2.67712C0.146484 1.38473 1.19784 0.333374 2.49023 0.333374H24.5736C25.1995 0.333374 25.788 0.577124 26.2308 1.01973C26.2308 1.01973 26.2308 1.01973 26.2309 1.01983C26.3043 1.09327 29.0019 3.79087 31.6996 6.48858C34.3956 9.18462 37.0917 11.8807 37.1682 11.9573C37.2448 12.034 37.1684 11.9573 37.1684 11.9574H37.1685C37.6111 12.4001 37.8547 12.9886 37.8547 13.6145V37.5989C37.8547 38.0304 37.5049 38.3801 37.0735 38.3801C36.642 38.3801 36.2922 38.0304 36.2922 37.5989V13.6146C36.2922 13.1832 35.9424 12.8334 35.511 12.8334H27.6985C26.4061 12.8334 25.3547 11.782 25.3547 10.4896V2.67712H25.3548ZM32.3861 31.5894C31.9546 31.5894 31.6048 31.2396 31.6048 30.8082V23.192C31.6048 22.7606 31.9546 22.4108 32.3861 22.4108C32.8175 22.4108 33.1673 22.7606 33.1673 23.192V30.8082C33.1673 31.2396 32.8175 31.5894 32.3861 31.5894ZM26.1361 30.8921C25.7046 30.8921 25.3548 30.5423 25.3548 30.1109V23.8892C25.3548 23.4578 25.7046 23.108 26.1361 23.108C26.5675 23.108 26.9173 23.4578 26.9173 23.8892V30.1109C26.9173 30.5423 26.5675 30.8921 26.1361 30.8921Z" fill="#ED7D31"/>
</svg>
