<svg width="24" height="24" viewBox="0 0 24 24" fill="none" xmlns="http://www.w3.org/2000/svg">
<rect x="4.2002" y="7.20007" width="16.8" height="10.2" fill="white"/>
<path d="M21 6.40002H12.6C12.2688 6.40002 12 6.67878 12 7.02225C12 7.36571 12.2688 7.64447 12.6 7.64447H19.2516L15.5652 10.6174L12.9216 8.87398L12.2784 9.92429L15.2784 11.903C15.3756 11.9677 15.4884 12 15.6 12C15.7296 12 15.8604 11.9565 15.9684 11.8694L20.4 8.29407V16.3556H12.6C12.2688 16.3556 12 16.6343 12 16.9778C12 17.3213 12.2688 17.6 12.6 17.6H21C21.3312 17.6 21.6 17.3213 21.6 16.9778V7.02225C21.6 6.67878 21.3312 6.40002 21 6.40002Z" fill="#006FC4"/>
<path d="M12.9362 2.54808C12.8 2.42649 12.6172 2.37401 12.4451 2.41241L2.88781 4.33232C2.60468 4.38864 2.40039 4.65231 2.40039 4.96077V19.0401C2.40039 19.3473 2.60468 19.6123 2.88781 19.6686L12.4451 21.5885C12.481 21.5962 12.518 21.6 12.5551 21.6C12.6936 21.6 12.8286 21.5488 12.9362 21.4528C13.0735 21.3312 13.1524 21.1495 13.1524 20.9601V3.04086C13.1524 2.85015 13.0735 2.66967 12.9362 2.54808Z" fill="#006DC3"/>
<path d="M7.80078 16.9064C6.14718 16.9064 4.80078 15.1314 4.80078 12.9503C4.80078 10.7692 6.14718 8.99426 7.80078 8.99426C9.45438 8.99426 10.8008 10.7692 10.8008 12.9503C10.8008 15.1314 9.45438 16.9064 7.80078 16.9064ZM7.80078 10.3129C6.80838 10.3129 6.00078 11.4958 6.00078 12.9503C6.00078 14.4048 6.80838 15.5877 7.80078 15.5877C8.79318 15.5877 9.60078 14.4048 9.60078 12.9503C9.60078 11.4958 8.79318 10.3129 7.80078 10.3129Z" fill="#EFEFEF"/>
</svg>
